<svg xmlns="http://www.w3.org/2000/svg" version="1.1" viewBox="-5.0 -10.0 110.0 135.0">
 <g>
  <path d="m38.656 17.961c0 6.4648-5.2422 11.711-11.711 11.711-6.4648 0-11.707-5.2461-11.707-11.711 0-6.4688 5.2422-11.711 11.707-11.711 6.4688 0 11.711 5.2422 11.711 11.711"/>
  <path d="m72.945 29.883c4.7383 0 9.0078-2.8477 10.824-7.2227 1.8125-4.375 0.81641-9.4141-2.5312-12.766-3.3477-3.3516-8.3828-4.3555-12.762-2.5469-4.375 1.8125-7.2305 6.0781-7.2344 10.816 0.003906 6.4648 5.2383 11.707 11.703 11.719z"/>
  <path d="m59.113 43.262c-0.38281-12.117-17.949-12.133-18.332 0 0.37891 12.117 17.949 12.117 18.332 0z"/>
  <path d="m58.945 34.629c7.5898 7.6094 1.8711 21.266-9 21.117v-0.003906c-5 0.003906-9.5195-2.9805-11.48-7.582-1.9609-4.5977-0.98438-9.9258 2.4805-13.531-6.3633-2.5547-13.559-1.9844-19.441 1.5391-12.762 7.5938-13.656 23.488-4.1758 34.062 2.2617 2.7383 4.7617 5.2656 7.4727 7.5586 1.3906 1.4258 3.5625 2.8008 5.2891 1.0273 0.56641-0.56641 0.87109-1.3438 0.83594-2.1445-0.035156-0.80078-0.40625-1.5508-1.0195-2.0664-8.8359-7.1953-13.309-13.824-13.309-19.723-0.18359-2.3359 1.5742-11.254 4.8906-9.3984 0.36719 0.24219 0.62109 0.625 0.71094 1.0547 0.085937 0.43359-0.003907 0.88281-0.24609 1.25-4.457 7.6914-1.4414 13.359 6.2812 20.949 11.355-11.984 32.09-12.051 43.461-0.03125 7.6914-7.5742 10.691-13.242 6.25-20.918h-0.003906c-0.24609-0.36719-0.33203-0.81641-0.24609-1.25 0.085938-0.42969 0.34375-0.8125 0.71094-1.0547 3.2812-1.8711 5.0898 7.0625 4.8906 9.3984 0 5.9023-4.4766 12.531-13.309 19.723h-0.003906c-0.61328 0.51172-0.98047 1.2578-1.0156 2.0586-0.035156 0.79688 0.26953 1.5742 0.83594 2.1367 2.1719 2.1875 4.5234-0.29688 6.1836-1.8086 4.707-4.1758 9.1328-9.0352 11.535-14.902 6.9766-17.566-11.504-34.473-28.578-27.461z"/>
  <path d="m69.223 70.926c-5.1094-5.1055-12.039-7.9766-19.262-7.9727-7.2266 0.003906-14.152 2.8789-19.258 7.9883 3.5625 2.1875 4.9375 7.0625 1.7422 10.211-0.52344 0.50391-1.1211 0.91797-1.7734 1.2266 6.082 4.3398 12.535 8.1445 19.273 11.371 6.7422-3.2266 13.191-7.0312 19.277-11.371-0.65234-0.30078-1.25-0.71484-1.7578-1.2266-3.2305-3.1641-1.8203-8.0391 1.7578-10.227z"/>
 </g>
<text x="0.0" y="117.5" font-size="5.0" font-weight="bold" font-family="Arbeit Regular, Helvetica, Arial-Unicode, Arial, Sans-serif" fill="#000000">Created by muhamad afiffudin</text><text x="0.0" y="122.5" font-size="5.0" font-weight="bold" font-family="Arbeit Regular, Helvetica, Arial-Unicode, Arial, Sans-serif" fill="#000000">from Noun Project</text></svg>